<?xml version="1.0" encoding="UTF-8" standalone="no"?>
<!-- Created with Inkscape (http://www.inkscape.org/) -->

<svg
   xmlns:dc="http://purl.org/dc/elements/1.1/"
   xmlns:cc="http://creativecommons.org/ns#"
   xmlns:rdf="http://www.w3.org/1999/02/22-rdf-syntax-ns#"
   xmlns:svg="http://www.w3.org/2000/svg"
   xmlns="http://www.w3.org/2000/svg"
   xmlns:sodipodi="http://sodipodi.sourceforge.net/DTD/sodipodi-0.dtd"
   xmlns:inkscape="http://www.inkscape.org/namespaces/inkscape"
   width="2125.9841"
   height="1417.3228"
   id="svg3013"
   version="1.1"
   inkscape:version="0.48.3.1 r9886"
   sodipodi:docname="pannels2.svg">
  <defs
     id="defs3015" />
  <sodipodi:namedview
     id="base"
     pagecolor="#ffffff"
     bordercolor="#666666"
     borderopacity="1.0"
     inkscape:pageopacity="0.0"
     inkscape:pageshadow="2"
     inkscape:zoom="0.37783218"
     inkscape:cx="1036.5411"
     inkscape:cy="434.05511"
     inkscape:document-units="mm"
     inkscape:current-layer="layer1"
     showgrid="true"
     units="mm"
     inkscape:window-width="1024"
     inkscape:window-height="550"
     inkscape:window-x="0"
     inkscape:window-y="0"
     inkscape:window-maximized="1"
     fit-margin-top="0"
     fit-margin-left="0"
     fit-margin-right="0"
     fit-margin-bottom="0">
    <inkscape:grid
       type="xygrid"
       id="grid3021"
       empspacing="5"
       visible="true"
       enabled="true"
       snapvisiblegridlinesonly="true"
       units="mm"
       spacingx="1mm"
       spacingy="1mm" />
  </sodipodi:namedview>
  <metadata
     id="metadata3018">
    <rdf:RDF>
      <cc:Work
         rdf:about="">
        <dc:format>image/svg+xml</dc:format>
        <dc:type
           rdf:resource="http://purl.org/dc/dcmitype/StillImage" />
        <dc:title></dc:title>
      </cc:Work>
    </rdf:RDF>
  </metadata>
  <g
     inkscape:label="Layer 1"
     inkscape:groupmode="layer"
     id="layer1"
     transform="translate(655.40586,364.96058)">
    <path
       style="fill:#000080;fill-opacity:1"
       d="m 566.92914,255.11809 17.71653,-1e-5 0,35.43307 17.71653,0.156 0,107.07617 248.0315,52.21665 -248.0315,53.34429 0,54.04316 c 1.29136,62.67886 67.6142,71.37245 124.01575,83.95113 l 0,3.54331 -123.90979,5e-5 -0.10596,354.2677 319.00359,-7.02361 -0.10595,-346.8553 -124.01575,-0.38884 0,-53.14961 -124.01574,-35.43307 248.03149,-52.44984 0,-107.07617 -248.03149,-53.07241 248.13744,-53.14956 17.61059,-5e-5 0,-35.43307 17.71655,1e-5 0,797.24411 -389.76379,0 z"
       id="rect3023"
       inkscape:connector-curvature="0"
       sodipodi:nodetypes="ccccccccccccccccccccccccccc" />
    <path
       style="fill:#008000;fill-opacity:1"
       d="m 602.3622,1016.9291 318.89765,0 0,10.6299 -318.89765,0 z"
       id="rect3026"
       inkscape:connector-curvature="0" />
    <path
       style="fill:#008000;fill-opacity:1"
       d="m 589.96063,875.19898 c 0,2.93537 -2.37959,5.31496 -5.31496,5.31496 -2.93537,0 -5.31496,-2.37959 -5.31496,-5.31496 0,-2.93537 2.37959,-5.31496 5.31496,-5.31496 2.93537,0 5.31496,2.37959 5.31496,5.31496 z"
       id="path3029"
       inkscape:connector-curvature="0" />
    <path
       inkscape:connector-curvature="0"
       id="path3032"
       d="m 589.96063,308.31898 c 0,2.93537 -2.37959,5.31496 -5.31496,5.31496 -2.93537,0 -5.31496,-2.37959 -5.31496,-5.31496 0,-2.93537 2.37959,-5.31496 5.31496,-5.31496 2.93537,0 5.31496,2.37959 5.31496,5.31496 z"
       style="fill:#008000;fill-opacity:1" />
    <path
       inkscape:connector-curvature="0"
       id="path3034"
       d="m 944.26063,875.19898 c 0,2.93537 -2.37959,5.31496 -5.31496,5.31496 -2.93537,0 -5.31496,-2.37959 -5.31496,-5.31496 0,-2.93537 2.37959,-5.31496 5.31496,-5.31496 2.93537,0 5.31496,2.37959 5.31496,5.31496 z"
       style="fill:#008000;fill-opacity:1" />
    <path
       style="fill:#008000;fill-opacity:1"
       d="m 944.26063,308.31898 c 0,2.93537 -2.37959,5.31496 -5.31496,5.31496 -2.93537,0 -5.31496,-2.37959 -5.31496,-5.31496 0,-2.93537 2.37959,-5.31496 5.31496,-5.31496 2.93537,0 5.31496,2.37959 5.31496,5.31496 z"
       id="path3036"
       inkscape:connector-curvature="0" />
    <path
       sodipodi:nodetypes="ccccccccccccc"
       inkscape:connector-curvature="0"
       id="path3038"
       d="m 159.48414,255.11809 17.71653,-1e-5 0,35.43307 17.71653,0.156 0,708.44246 318.89764,0 0.0706,-708.59841 17.6459,-5e-5 0,-35.43307 17.71655,1e-5 0,797.24411 -389.76379,0 z"
       style="fill:#000080;fill-opacity:1" />
    <path
       inkscape:connector-curvature="0"
       id="path3040"
       d="m 194.9172,1016.9291 318.89765,0 0,10.6299 -318.89765,0 z"
       style="fill:#008000;fill-opacity:1" />
    <path
       inkscape:connector-curvature="0"
       id="path3042"
       d="m 182.51563,875.19898 c 0,2.93537 -2.37959,5.31496 -5.31496,5.31496 -2.93537,0 -5.31496,-2.37959 -5.31496,-5.31496 0,-2.93537 2.37959,-5.31496 5.31496,-5.31496 2.93537,0 5.31496,2.37959 5.31496,5.31496 z"
       style="fill:#008000;fill-opacity:1" />
    <path
       style="fill:#008000;fill-opacity:1"
       d="m 182.51563,308.31898 c 0,2.93537 -2.37959,5.31496 -5.31496,5.31496 -2.93537,0 -5.31496,-2.37959 -5.31496,-5.31496 0,-2.93537 2.37959,-5.31496 5.31496,-5.31496 2.93537,0 5.31496,2.37959 5.31496,5.31496 z"
       id="path3044"
       inkscape:connector-curvature="0" />
    <path
       style="fill:#008000;fill-opacity:1"
       d="m 536.81563,875.19898 c 0,2.93537 -2.37959,5.31496 -5.31496,5.31496 -2.93537,0 -5.31496,-2.37959 -5.31496,-5.31496 0,-2.93537 2.37959,-5.31496 5.31496,-5.31496 2.93537,0 5.31496,2.37959 5.31496,5.31496 z"
       id="path3046"
       inkscape:connector-curvature="0" />
    <path
       inkscape:connector-curvature="0"
       id="path3048"
       d="m 536.81563,308.31898 c 0,2.93537 -2.37959,5.31496 -5.31496,5.31496 -2.93537,0 -5.31496,-2.37959 -5.31496,-5.31496 0,-2.93537 2.37959,-5.31496 5.31496,-5.31496 2.93537,0 5.31496,2.37959 5.31496,5.31496 z"
       style="fill:#008000;fill-opacity:1" />
    <path
       style="fill:#000080;fill-opacity:1"
       d="m -247.96086,255.11809 389.76379,0 0,797.24411 -389.76379,0 z"
       id="path3050"
       inkscape:connector-curvature="0"
       sodipodi:nodetypes="ccccc" />
    <path
       style="fill:#008000;fill-opacity:1"
       d="m -212.5278,1016.9291 318.89765,0 0,10.6299 -318.89765,0 z"
       id="path3052"
       inkscape:connector-curvature="0" />
    <path
       style="fill:#008000;fill-opacity:1"
       d="m -224.92937,875.19898 c 0,2.93537 -2.37959,5.31496 -5.31496,5.31496 -2.93537,0 -5.31496,-2.37959 -5.31496,-5.31496 0,-2.93537 2.37959,-5.31496 5.31496,-5.31496 2.93537,0 5.31496,2.37959 5.31496,5.31496 z"
       id="path3054"
       inkscape:connector-curvature="0" />
    <path
       inkscape:connector-curvature="0"
       id="path3056"
       d="m -224.92937,308.31898 c 0,2.93537 -2.37959,5.31496 -5.31496,5.31496 -2.93537,0 -5.31496,-2.37959 -5.31496,-5.31496 0,-2.93537 2.37959,-5.31496 5.31496,-5.31496 2.93537,0 5.31496,2.37959 5.31496,5.31496 z"
       style="fill:#008000;fill-opacity:1" />
    <path
       inkscape:connector-curvature="0"
       id="path3058"
       d="m 129.37063,875.19898 c 0,2.93537 -2.37959,5.31496 -5.31496,5.31496 -2.93537,0 -5.31496,-2.37959 -5.31496,-5.31496 0,-2.93537 2.37959,-5.31496 5.31496,-5.31496 2.93537,0 5.31496,2.37959 5.31496,5.31496 z"
       style="fill:#008000;fill-opacity:1" />
    <path
       style="fill:#008000;fill-opacity:1"
       d="m 129.37063,308.31898 c 0,2.93537 -2.37959,5.31496 -5.31496,5.31496 -2.93537,0 -5.31496,-2.37959 -5.31496,-5.31496 0,-2.93537 2.37959,-5.31496 5.31496,-5.31496 2.93537,0 5.31496,2.37959 5.31496,5.31496 z"
       id="path3060"
       inkscape:connector-curvature="0" />
    <path
       inkscape:connector-curvature="0"
       id="path3062"
       d="m -70.866139,708.66139 81.49606,0 0,46.06299 -81.49606,0 z"
       style="fill:#008000;fill-opacity:1" />
    <path
       sodipodi:nodetypes="ccc"
       style="font-size:medium;font-style:normal;font-variant:normal;font-weight:normal;font-stretch:normal;text-indent:0;text-align:start;text-decoration:none;line-height:normal;letter-spacing:normal;word-spacing:normal;text-transform:none;direction:ltr;block-progression:tb;writing-mode:lr-tb;text-anchor:start;baseline-shift:baseline;color:#000000;fill:#008000;fill-opacity:1;stroke:#008000;stroke-width:0.35433072;stroke-opacity:1;marker:none;visibility:visible;display:inline;overflow:visible;enable-background:accumulate;font-family:Sans;-inkscape-font-specification:Sans"
       d="m 177.27284,255.1212 354.32918,0 z"
       id="path3130"
       inkscape:connector-curvature="0" />
    <path
       inkscape:connector-curvature="0"
       id="path3136"
       d="m 726.4839,644.88191 70.86615,0 z"
       style="font-size:medium;font-style:normal;font-variant:normal;font-weight:normal;font-stretch:normal;text-indent:0;text-align:start;text-decoration:none;line-height:normal;letter-spacing:normal;word-spacing:normal;text-transform:none;direction:ltr;block-progression:tb;writing-mode:lr-tb;text-anchor:start;baseline-shift:baseline;color:#000000;fill:#008000;fill-opacity:1;stroke:#008000;stroke-width:0.35433072;marker:none;visibility:visible;display:inline;overflow:visible;enable-background:accumulate;font-family:Sans;-inkscape-font-specification:Sans"
       sodipodi:nodetypes="ccc" />
    <rect
       style="fill:#008000;fill-opacity:1;fill-rule:nonzero;stroke:none"
       id="rect3114"
       width="35.433071"
       height="10.629921"
       x="-70.76017"
       y="269.29135" />
    <path
       style="fill:#000080;stroke:none"
       d="m 602.46816,255.11813 70.8661,0 0,10.62992 -17.7165,0 0,113.38582 -35.4331,0 0,-113.38582 -17.7165,0 z"
       id="path3129"
       inkscape:connector-curvature="0"
       sodipodi:nodetypes="ccccccccc" />
    <path
       style="fill:#008000;fill-opacity:1"
       d="m 648.5311,361.41734 c 0,5.87074 -4.75918,10.62992 -10.62992,10.62992 -5.87074,0 -10.62992,-4.75918 -10.62992,-10.62992 0,-5.87074 4.75918,-10.62992 10.62992,-10.62992 5.87074,0 10.62992,4.75918 10.62992,10.62992 z"
       id="path3131"
       inkscape:connector-curvature="0" />
    <path
       inkscape:connector-curvature="0"
       style="fill:#000080;fill-opacity:1;fill-rule:nonzero;stroke:none"
       d="m 796.19109,658.83845 0,28.06424 c 0,19.57028 -15.8692,35.43953 -35.4394,35.43953 -19.57,0 -35.4393,-15.86925 -35.4393,-35.43953 l 0,-28.03299 c -31.2741,13.67576 -53.1277,44.8752 -53.1277,81.19234 0,48.9259 39.6417,88.5679 88.567,88.5679 48.9255,0 88.5984,-39.642 88.5984,-88.5679 0,-36.33174 -21.8647,-67.55646 -53.159,-81.22359 z"
       id="path3831" />
    <path
       sodipodi:type="arc"
       style="fill:#008000;fill-opacity:1;fill-rule:nonzero;stroke:none"
       id="path3833"
       sodipodi:cx="168.30708"
       sodipodi:cy="1071.8503"
       sodipodi:rx="8.8582678"
       sodipodi:ry="8.8582678"
       d="m 177.16535,1071.8503 c 0,4.8923 -3.96598,8.8583 -8.85827,8.8583 -4.89228,0 -8.85826,-3.966 -8.85826,-8.8583 0,-4.8922 3.96598,-8.8582 8.85826,-8.8582 4.89229,0 8.85827,3.966 8.85827,8.8582 z"
       transform="matrix(0.89999999,0,0,0.89999999,609.29979,-224.61805)" />
    <path
       style="fill:#000080;fill-opacity:1"
       d="m -655.40582,255.11809 17.71653,-1e-5 0,35.43307 17.71653,0.156 0,708.44246 318.89764,0 0.0706,-708.59841 17.6459,-5e-5 0,-35.43307 17.71655,1e-5 0,797.24411 -389.76379,0 z"
       id="path3277"
       inkscape:connector-curvature="0"
       sodipodi:nodetypes="ccccccccccccc" />
    <path
       style="fill:#008000;fill-opacity:1"
       d="m -619.97276,1016.9291 318.89765,0 0,10.6299 -318.89765,0 z"
       id="path3279"
       inkscape:connector-curvature="0" />
    <path
       style="fill:#008000;fill-opacity:1"
       d="m -632.37433,875.19898 c 0,2.93537 -2.37959,5.31496 -5.31496,5.31496 -2.93537,0 -5.31496,-2.37959 -5.31496,-5.31496 0,-2.93537 2.37959,-5.31496 5.31496,-5.31496 2.93537,0 5.31496,2.37959 5.31496,5.31496 z"
       id="path3281"
       inkscape:connector-curvature="0" />
    <path
       inkscape:connector-curvature="0"
       id="path3283"
       d="m -632.37433,308.31898 c 0,2.93537 -2.37959,5.31496 -5.31496,5.31496 -2.93537,0 -5.31496,-2.37959 -5.31496,-5.31496 0,-2.93537 2.37959,-5.31496 5.31496,-5.31496 2.93537,0 5.31496,2.37959 5.31496,5.31496 z"
       style="fill:#008000;fill-opacity:1" />
    <path
       inkscape:connector-curvature="0"
       id="path3285"
       d="m -278.07433,875.19898 c 0,2.93537 -2.37959,5.31496 -5.31496,5.31496 -2.93537,0 -5.31496,-2.37959 -5.31496,-5.31496 0,-2.93537 2.37959,-5.31496 5.31496,-5.31496 2.93537,0 5.31496,2.37959 5.31496,5.31496 z"
       style="fill:#008000;fill-opacity:1" />
    <path
       style="fill:#008000;fill-opacity:1"
       d="m -278.07433,308.31898 c 0,2.93537 -2.37959,5.31496 -5.31496,5.31496 -2.93537,0 -5.31496,-2.37959 -5.31496,-5.31496 0,-2.93537 2.37959,-5.31496 5.31496,-5.31496 2.93537,0 5.31496,2.37959 5.31496,5.31496 z"
       id="path3287"
       inkscape:connector-curvature="0" />
    <path
       sodipodi:nodetypes="ccc"
       style="font-size:medium;font-style:normal;font-variant:normal;font-weight:normal;font-stretch:normal;text-indent:0;text-align:start;text-decoration:none;line-height:normal;letter-spacing:normal;word-spacing:normal;text-transform:none;direction:ltr;block-progression:tb;writing-mode:lr-tb;text-anchor:start;baseline-shift:baseline;color:#000000;fill:#008000;fill-opacity:1;stroke:#008000;stroke-width:0.35433072;marker:none;visibility:visible;display:inline;overflow:visible;enable-background:accumulate;font-family:Sans;-inkscape-font-specification:Sans"
       d="m -619.90212,290.5512 318.89764,0 z"
       id="path3289"
       inkscape:connector-curvature="0" />
    <path
       inkscape:connector-curvature="0"
       id="path3291"
       d="m -637.61712,255.1212 354.32918,0 z"
       style="font-size:medium;font-style:normal;font-variant:normal;font-weight:normal;font-stretch:normal;text-indent:0;text-align:start;text-decoration:none;line-height:normal;letter-spacing:normal;word-spacing:normal;text-transform:none;direction:ltr;block-progression:tb;writing-mode:lr-tb;text-anchor:start;baseline-shift:baseline;color:#000000;fill:#008000;fill-opacity:1;stroke:#008000;stroke-width:0.35433072;stroke-opacity:1;marker:none;visibility:visible;display:inline;overflow:visible;enable-background:accumulate;font-family:Sans;-inkscape-font-specification:Sans"
       sodipodi:nodetypes="ccc" />
    <path
       sodipodi:nodetypes="ccccccccccccc"
       inkscape:connector-curvature="0"
       id="path3512"
       d="m 974.5154,255.11806 17.7166,-1e-5 0,35.43307 17.7165,0.156 0,708.44246 318.8976,0 0.071,-708.59841 17.6459,-5e-5 0,-35.43307 17.7166,1e-5 0,797.24414 -389.7638,0 z"
       style="fill:#000080;fill-opacity:1" />
    <path
       inkscape:connector-curvature="0"
       id="path3514"
       d="m 1009.9485,1016.9291 318.8976,0 0,10.6299 -318.8976,0 z"
       style="fill:#008000;fill-opacity:1" />
    <path
       inkscape:connector-curvature="0"
       id="path3516"
       d="m 997.5469,875.19895 c 0,2.93537 -2.3796,5.31496 -5.3149,5.31496 -2.9354,0 -5.315,-2.37959 -5.315,-5.31496 0,-2.93537 2.3796,-5.31496 5.315,-5.31496 2.9353,0 5.3149,2.37959 5.3149,5.31496 z"
       style="fill:#008000;fill-opacity:1" />
    <path
       style="fill:#008000;fill-opacity:1"
       d="m 997.5469,308.31895 c 0,2.93537 -2.3796,5.31496 -5.3149,5.31496 -2.9354,0 -5.315,-2.37959 -5.315,-5.31496 0,-2.93537 2.3796,-5.31496 5.315,-5.31496 2.9353,0 5.3149,2.37959 5.3149,5.31496 z"
       id="path3518"
       inkscape:connector-curvature="0" />
    <path
       style="fill:#008000;fill-opacity:1"
       d="m 1351.8469,875.19895 c 0,2.93537 -2.3796,5.31496 -5.3149,5.31496 -2.9354,0 -5.315,-2.37959 -5.315,-5.31496 0,-2.93537 2.3796,-5.31496 5.315,-5.31496 2.9353,0 5.3149,2.37959 5.3149,5.31496 z"
       id="path3520"
       inkscape:connector-curvature="0" />
    <path
       inkscape:connector-curvature="0"
       id="path3522"
       d="m 1351.8469,308.31895 c 0,2.93537 -2.3796,5.31496 -5.3149,5.31496 -2.9354,0 -5.315,-2.37959 -5.315,-5.31496 0,-2.93537 2.3796,-5.31496 5.315,-5.31496 2.9353,0 5.3149,2.37959 5.3149,5.31496 z"
       style="fill:#008000;fill-opacity:1" />
    <path
       sodipodi:nodetypes="ccc"
       style="font-size:medium;font-style:normal;font-variant:normal;font-weight:normal;font-stretch:normal;text-indent:0;text-align:start;text-decoration:none;line-height:normal;letter-spacing:normal;word-spacing:normal;text-transform:none;direction:ltr;block-progression:tb;writing-mode:lr-tb;text-anchor:start;baseline-shift:baseline;color:#000000;fill:#008000;fill-opacity:1;stroke:#008000;stroke-width:0.35433072;stroke-opacity:1;marker:none;visibility:visible;display:inline;overflow:visible;enable-background:accumulate;font-family:Sans;-inkscape-font-specification:Sans"
       d="m 992.3041,255.12117 354.3292,0 z"
       id="path3526"
       inkscape:connector-curvature="0" />
    <path
       sodipodi:nodetypes="ccc"
       style="font-size:medium;font-style:normal;font-variant:normal;font-weight:normal;font-stretch:normal;text-indent:0;text-align:start;text-decoration:none;line-height:normal;letter-spacing:normal;word-spacing:normal;text-transform:none;direction:ltr;block-progression:tb;writing-mode:lr-tb;text-anchor:start;baseline-shift:baseline;color:#000000;fill:#008000;fill-opacity:1;stroke:#008000;stroke-width:0.35433054;stroke-opacity:1;marker:none;visibility:visible;display:inline;overflow:visible;enable-background:accumulate;font-family:Sans;-inkscape-font-specification:Sans"
       d="m 1063.1703,981.31887 354.3288,0 z"
       id="path3526-3"
       inkscape:connector-curvature="0" />
    <path
       style="fill:#000080;fill-opacity:1"
       d="m 1187.1137,272.83461 0,318.89764 -106.2991,0 0,-318.89764 z"
       id="path3485"
       inkscape:connector-curvature="0" />
    <path
       style="fill:#008000;fill-opacity:1"
       d="m 1156.9955,290.6571 c -2.9354,0 -5.315,-2.37959 -5.315,-5.31496 0,-2.93537 2.3796,-5.31497 5.315,-5.31497 2.9353,0 5.3149,2.3796 5.3149,5.31497 0,2.93537 -2.3796,5.31496 -5.3149,5.31496 z"
       id="path3487"
       inkscape:connector-curvature="0" />
    <path
       style="fill:#008000;fill-opacity:1;fill-rule:nonzero;stroke:none"
       d="m 1169.397,297.7437 3e-4,81.39012 17.7165,0 0,106.29922 -17.7165,0 -3e-4,81.60201 -70.8661,0 0,-269.29135 z"
       id="rect3489"
       inkscape:connector-curvature="0"
       sodipodi:nodetypes="ccccccccc" />
    <path
       inkscape:connector-curvature="0"
       id="path3491"
       d="m 1156.9955,584.75156 c -2.9354,0 -5.315,-2.37958 -5.315,-5.31495 0,-2.93537 2.3796,-5.31496 5.315,-5.31496 2.9353,0 5.3149,2.37959 5.3149,5.31496 0,2.93537 -2.3796,5.31495 -5.3149,5.31495 z"
       style="fill:#008000;fill-opacity:1" />
    <path
       style="fill:#000080;fill-opacity:1"
       d="m 1187.1138,662.59839 0,318.89764 -106.2992,0 0,-318.89764 z"
       id="path3612"
       inkscape:connector-curvature="0" />
    <path
       style="fill:#008000;fill-opacity:1"
       d="m 1156.9956,680.42088 c -2.9354,0 -5.315,-2.37959 -5.315,-5.31496 0,-2.93537 2.3796,-5.31497 5.315,-5.31497 2.9353,0 5.3149,2.3796 5.3149,5.31497 0,2.93537 -2.3796,5.31496 -5.3149,5.31496 z"
       id="path3614"
       inkscape:connector-curvature="0" />
    <rect
       y="-1169.3972"
       x="687.50745"
       height="70.866203"
       width="269.29135"
       id="rect3616"
       style="fill:#008000;fill-opacity:1;fill-rule:nonzero;stroke:none"
       transform="matrix(0,1,-1,0,0,0)" />
    <path
       inkscape:connector-curvature="0"
       id="path3618"
       d="m 1156.9956,974.51534 c -2.9354,0 -5.315,-2.37958 -5.315,-5.31495 0,-2.93537 2.3796,-5.31496 5.315,-5.31496 2.9353,0 5.3149,2.37959 5.3149,5.31496 0,2.93537 -2.3796,5.31495 -5.3149,5.31495 z"
       style="fill:#008000;fill-opacity:1" />
    <path
       inkscape:connector-curvature="0"
       id="path3624"
       d="m 1311.1296,662.59839 0,318.89764 -106.2992,0 0,-318.89764 z"
       style="fill:#000080;fill-opacity:1" />
    <path
       inkscape:connector-curvature="0"
       id="path3626"
       d="m 1281.0114,680.42088 c -2.9354,0 -5.315,-2.37959 -5.315,-5.31496 0,-2.93537 2.3796,-5.31497 5.315,-5.31497 2.9353,0 5.3149,2.3796 5.3149,5.31497 0,2.93537 -2.3796,5.31496 -5.3149,5.31496 z"
       style="fill:#008000;fill-opacity:1" />
    <rect
       transform="matrix(0,1,-1,0,0,0)"
       style="fill:#008000;fill-opacity:1;fill-rule:nonzero;stroke:none"
       id="rect3628"
       width="269.29135"
       height="70.866203"
       x="687.50745"
       y="-1293.413" />
    <path
       style="fill:#008000;fill-opacity:1"
       d="m 1281.0114,974.51534 c -2.9354,0 -5.315,-2.37958 -5.315,-5.31495 0,-2.93537 2.3796,-5.31496 5.315,-5.31496 2.9353,0 5.3149,2.37959 5.3149,5.31496 0,2.93537 -2.3796,5.31495 -5.3149,5.31495 z"
       id="path3630"
       inkscape:connector-curvature="0" />
    <path
       style="fill:#000080;fill-opacity:1"
       d="m 1311.1296,272.83461 0,318.89764 -106.2992,0 0,-318.89764 z"
       id="path3632"
       inkscape:connector-curvature="0" />
    <path
       style="fill:#008000;fill-opacity:1"
       d="m 1281.0114,290.6571 c -2.9354,0 -5.315,-2.37959 -5.315,-5.31496 0,-2.93537 2.3796,-5.31497 5.315,-5.31497 2.9353,0 5.3149,2.3796 5.3149,5.31497 0,2.93537 -2.3796,5.31496 -5.3149,5.31496 z"
       id="path3634"
       inkscape:connector-curvature="0" />
    <path
       inkscape:connector-curvature="0"
       id="path3638"
       d="m 1281.0114,584.75156 c -2.9354,0 -5.315,-2.37958 -5.315,-5.31495 0,-2.93537 2.3796,-5.31496 5.315,-5.31496 2.9353,0 5.3149,2.37959 5.3149,5.31496 0,2.93537 -2.3796,5.31495 -5.3149,5.31495 z"
       style="fill:#008000;fill-opacity:1" />
    <path
       inkscape:connector-curvature="0"
       id="path3640"
       d="m 336.72011,272.83461 0,318.89764 -106.2992,0 0,-318.89764 z"
       style="fill:#000080;fill-opacity:1" />
    <path
       inkscape:connector-curvature="0"
       id="path3642"
       d="m 306.60191,290.6571 c -2.9354,0 -5.315,-2.37959 -5.315,-5.31496 0,-2.93537 2.3796,-5.31497 5.315,-5.31497 2.9353,0 5.3149,2.3796 5.3149,5.31497 0,2.93537 -2.3796,5.31496 -5.3149,5.31496 z"
       style="fill:#008000;fill-opacity:1" />
    <rect
       transform="matrix(0,1,-1,0,0,0)"
       style="fill:#008000;fill-opacity:1;fill-rule:nonzero;stroke:none"
       id="rect3644"
       width="269.29135"
       height="70.866211"
       x="297.74365"
       y="-319.00348" />
    <path
       style="fill:#008000;fill-opacity:1"
       d="m 306.60191,584.75156 c -2.9354,0 -5.315,-2.37958 -5.315,-5.31495 0,-2.93537 2.3796,-5.31496 5.315,-5.31496 2.9353,0 5.3149,2.37959 5.3149,5.31496 0,2.93537 -2.3796,5.31495 -5.3149,5.31495 z"
       id="path3646"
       inkscape:connector-curvature="0" />
    <path
       style="fill:#000080;fill-opacity:1"
       d="m 336.72011,662.59839 0,318.89764 -106.2992,0 0,-318.89764 z"
       id="path3648"
       inkscape:connector-curvature="0" />
    <path
       style="fill:#008000;fill-opacity:1"
       d="m 306.60191,680.42088 c -2.9354,0 -5.315,-2.37959 -5.315,-5.31496 0,-2.93537 2.3796,-5.31497 5.315,-5.31497 2.9353,0 5.3149,2.3796 5.3149,5.31497 0,2.93537 -2.3796,5.31496 -5.3149,5.31496 z"
       id="path3650"
       inkscape:connector-curvature="0" />
    <rect
       y="-319.00348"
       x="687.50745"
       height="70.866211"
       width="269.29135"
       id="rect3652"
       style="fill:#008000;fill-opacity:1;fill-rule:nonzero;stroke:none"
       transform="matrix(0,1,-1,0,0,0)" />
    <path
       inkscape:connector-curvature="0"
       id="path3654"
       d="m 306.60191,974.51534 c -2.9354,0 -5.315,-2.37958 -5.315,-5.31495 0,-2.93537 2.3796,-5.31496 5.315,-5.31496 2.9353,0 5.3149,2.37959 5.3149,5.31496 0,2.93537 -2.3796,5.31495 -5.3149,5.31495 z"
       style="fill:#008000;fill-opacity:1" />
    <path
       inkscape:connector-curvature="0"
       id="path3656"
       d="m 478.4524,662.59839 0,318.89764 -106.2992,0 0,-318.89764 z"
       style="fill:#000080;fill-opacity:1" />
    <path
       inkscape:connector-curvature="0"
       id="path3658"
       d="m 448.3342,680.42088 c -2.9354,0 -5.315,-2.37959 -5.315,-5.31496 0,-2.93537 2.3796,-5.31497 5.315,-5.31497 2.9353,0 5.3149,2.3796 5.3149,5.31497 0,2.93537 -2.3796,5.31496 -5.3149,5.31496 z"
       style="fill:#008000;fill-opacity:1" />
    <rect
       transform="matrix(0,1,-1,0,0,0)"
       style="fill:#008000;fill-opacity:1;fill-rule:nonzero;stroke:none"
       id="rect3660"
       width="269.29135"
       height="70.866211"
       x="687.50745"
       y="-460.73578" />
    <path
       style="fill:#008000;fill-opacity:1"
       d="m 448.3342,974.51534 c -2.9354,0 -5.315,-2.37958 -5.315,-5.31495 0,-2.93537 2.3796,-5.31496 5.315,-5.31496 2.9353,0 5.3149,2.37959 5.3149,5.31496 0,2.93537 -2.3796,5.31495 -5.3149,5.31495 z"
       id="path3662"
       inkscape:connector-curvature="0" />
    <path
       style="fill:#000080;fill-opacity:1"
       d="m 478.4524,272.83461 0,318.89764 -106.2992,0 0,-318.89764 z"
       id="path3672"
       inkscape:connector-curvature="0" />
    <path
       style="fill:#008000;fill-opacity:1"
       d="m 448.3342,290.6571 c -2.9354,0 -5.315,-2.37959 -5.315,-5.31496 0,-2.93537 2.3796,-5.31497 5.315,-5.31497 2.9353,0 5.3149,2.3796 5.3149,5.31497 0,2.93537 -2.3796,5.31496 -5.3149,5.31496 z"
       id="path3674"
       inkscape:connector-curvature="0" />
    <path
       inkscape:connector-curvature="0"
       id="path3678"
       d="m 448.3342,584.75156 c -2.9354,0 -5.315,-2.37958 -5.315,-5.31495 0,-2.93537 2.3796,-5.31496 5.315,-5.31496 2.9353,0 5.3149,2.37959 5.3149,5.31496 0,2.93537 -2.3796,5.31495 -5.3149,5.31495 z"
       style="fill:#008000;fill-opacity:1" />
    <path
       sodipodi:nodetypes="ccccccccccccc"
       inkscape:connector-curvature="0"
       id="path3680"
       d="m 1027.665,981.49603 17.7165,0 0,-35.4331 17.7165,-0.156 0,-708.44241 318.8976,0 0.071,708.59841 17.6459,0 0,35.4331 17.7166,0 0,-797.2441 -389.7638,0 z"
       style="fill:#000080;fill-opacity:1" />
    <path
       inkscape:connector-curvature="0"
       id="path3682"
       d="m 1063.098,219.68503 318.8976,0 0,-10.6299 -318.8976,0 z"
       style="fill:#008000;fill-opacity:1" />
    <path
       inkscape:connector-curvature="0"
       id="path3684"
       d="m 1050.6965,361.41515 c 0,-2.93537 -2.3796,-5.31496 -5.315,-5.31496 -2.9354,0 -5.315,2.37959 -5.315,5.31496 0,2.93537 2.3796,5.31496 5.315,5.31496 2.9354,0 5.315,-2.37959 5.315,-5.31496 z"
       style="fill:#008000;fill-opacity:1" />
    <path
       style="fill:#008000;fill-opacity:1"
       d="m 1050.6965,928.29515 c 0,-2.93537 -2.3796,-5.31496 -5.315,-5.31496 -2.9354,0 -5.315,2.37959 -5.315,5.31496 0,2.93538 2.3796,5.31498 5.315,5.31498 2.9354,0 5.315,-2.3796 5.315,-5.31498 z"
       id="path3686"
       inkscape:connector-curvature="0" />
    <path
       style="fill:#008000;fill-opacity:1"
       d="m 1404.9964,361.41515 c 0,-2.93537 -2.3796,-5.31496 -5.315,-5.31496 -2.9353,0 -5.3149,2.37959 -5.3149,5.31496 0,2.93537 2.3796,5.31496 5.3149,5.31496 2.9354,0 5.315,-2.37959 5.315,-5.31496 z"
       id="path3688"
       inkscape:connector-curvature="0" />
    <path
       inkscape:connector-curvature="0"
       id="path3690"
       d="m 1404.9964,928.29515 c 0,-2.93537 -2.3796,-5.31496 -5.315,-5.31496 -2.9353,0 -5.3149,2.37959 -5.3149,5.31496 0,2.93538 2.3796,5.31498 5.3149,5.31498 2.9354,0 5.315,-2.3796 5.315,-5.31498 z"
       style="fill:#008000;fill-opacity:1" />
    <path
       sodipodi:nodetypes="ccccccccc"
       inkscape:connector-curvature="0"
       id="path3710"
       d="m 1293.413,297.7437 3e-4,81.39012 17.7165,0 0,106.29922 -17.7165,0 -3e-4,81.60201 -70.8661,0 0,-269.29135 z"
       style="fill:#008000;fill-opacity:1;fill-rule:nonzero;stroke:none" />
  </g>
</svg>
